<svg width="145" height="20" viewBox="0 0 145 20" fill="none" xmlns="http://www.w3.org/2000/svg">
<path fill-rule="evenodd" clip-rule="evenodd" d="M0.140625 1.02368V4.56307H7.90822V19.3754H14.5653V4.56307H21.5005V1.02368H0.140625Z" fill="#161413"/>
<path fill-rule="evenodd" clip-rule="evenodd" d="M85.3886 1.02368V13.0575C85.3886 15.5739 82.6491 17.7614 78.0408 16.1206V19.0746C82.1503 20.0594 91.3672 18.7463 91.3672 11.4168V1.02368H85.3886Z" fill="#161413"/>
<path fill-rule="evenodd" clip-rule="evenodd" d="M99.7262 10.9868L102.917 6.52959L106.245 10.9868H99.7262ZM97.2299 14.5257H108.881L112.487 19.3754H119.838L105.136 0.105896H103.471L89.1853 19.3754H93.902L97.2299 14.5257Z" fill="#00A3FF"/>
<path fill-rule="evenodd" clip-rule="evenodd" d="M120.394 1.02368V19.3754H124.277V8.49542L142.862 19.3754H144.665V1.02368H140.781V11.9038L122.473 1.02368H120.394Z" fill="#161413"/>
<path fill-rule="evenodd" clip-rule="evenodd" d="M59.5263 4.56307C57.9821 4.56307 56.7296 5.74607 56.7296 7.20551V13.1937C56.7296 14.6533 57.9821 15.8359 59.5263 15.8359H69.4681C71.0123 15.8359 72.264 14.6533 72.264 13.1937V7.20551C72.264 5.74607 71.0123 4.56307 69.4681 4.56307H59.5263ZM57.2627 1.02368H71.7316C75.7017 1.02368 78.9211 4.06641 78.9211 7.81952V12.5805C78.9211 16.3338 75.7017 19.3754 71.7316 19.3754H57.2627C53.2918 19.3754 50.0725 16.3338 50.0725 12.5805V7.81952C50.0725 4.06641 53.2918 1.02368 57.2627 1.02368Z" fill="#161413"/>
<path fill-rule="evenodd" clip-rule="evenodd" d="M29.4296 10.8775L41.1954 19.3754H50.6271L40.1079 11.9038H44.9189C46.4631 11.9038 47.7147 10.7208 47.7147 9.26135V3.66612C47.7147 2.20669 46.4631 1.02368 44.9189 1.02368H22.9094V19.3754H29.5453L29.4296 10.8775ZM29.4942 4.56225H39.8595C40.5211 4.56225 41.0576 5.06935 41.0576 5.69464V7.88783C41.0576 8.51394 40.5211 9.02022 39.8595 9.02022H29.4942V4.56225Z" fill="#161413"/>
</svg>
